<svg width="126" height="24" viewBox="0 0 126 24" fill="none" xmlns="http://www.w3.org/2000/svg">
<path d="M105.148 8.45379L101.551 8.09408V3.59766H98.4332V5.27632C98.4332 8.75355 99.8121 9.9526 101.491 10.4922H98.4332V14.6289C98.4332 18.6457 100.412 20.2644 104.249 20.2644C108.086 20.2644 110.064 18.6457 110.064 14.6289V14.0893C110.124 9.29312 107.546 8.6936 105.148 8.45379ZM107.006 17.4466H101.551V10.5521C102.15 10.732 102.81 10.8519 103.409 10.9118L107.006 11.4514V17.4466ZM114.381 3.59766C113.421 3.59766 112.762 4.25713 112.762 5.21637C112.762 6.1756 113.421 6.83508 114.381 6.83508C115.34 6.83508 115.999 6.1756 115.999 5.21637C116.059 4.25713 115.4 3.59766 114.381 3.59766ZM121.875 8.39384V5.57608H118.817C118.817 9.59288 120.795 11.2116 124.632 11.2116H125.891V8.39384H121.875ZM121.875 10.8519H118.817V14.6289C118.817 18.6457 120.795 20.2644 124.632 20.2644H125.891V17.4466H121.875V10.8519ZM112.882 20.2644H115.999V8.39384H112.882V20.2644Z" fill="#EABC4B"/>
<path d="M61.0232 8.45327L57.4261 8.09355V3.59713H54.3086V5.2758C54.3086 8.75303 55.6875 9.95207 57.3661 10.4916H54.3086V20.2639H57.4261V10.5516C58.0256 10.7315 58.6851 10.8514 59.2846 10.9113L62.8817 11.4509V20.2639H65.9993V14.0888C65.9993 9.2926 63.4213 8.69308 61.0232 8.45327ZM48.0735 17.4461H44.3565V8.39331H41.239V14.6283C41.239 18.6451 43.2174 20.2639 47.0543 20.2639H51.1311V8.39331H48.0735V17.4461ZM37.6418 8.39331H34.5243V14.6283C34.5243 18.6451 36.5028 20.2639 40.3397 20.2639H41.5987V17.4461H37.5819V8.39331H37.6418ZM90.16 8.39331H84.3446V9.89212C84.3446 13.9089 86.3231 15.5276 90.16 15.5276H95.9754V14.0288C95.9754 9.95207 93.997 8.39331 90.16 8.39331ZM92.9178 12.9497H90.16H87.4022V11.0312H92.8579V12.9497H92.9178ZM70.5556 3.59713C69.5964 3.59713 68.9369 4.25661 68.9369 5.21585C68.9369 6.17508 69.5964 6.83456 70.5556 6.83456C71.5149 6.83456 72.1743 6.17508 72.1743 5.21585C72.1743 4.25661 71.5149 3.59713 70.5556 3.59713ZM68.9969 20.2639H72.1144V8.39331H68.9969V20.2639ZM78.0497 10.8514H74.9321V14.6283C74.9321 18.6451 76.9106 20.2639 80.7475 20.2639H82.0065V17.4461H78.0497V10.8514ZM78.0497 5.57556H74.9321C74.9321 9.59236 76.9106 11.2111 80.7475 11.2111H82.0065V8.39331H78.0497V5.57556ZM87.4022 15.108H84.2847C84.2847 18.7051 86.2631 20.2639 90.1001 20.2639H95.3159V17.4461H87.3423V15.108H87.4022ZM24.0327 0.0599522C21.155 0.0599522 18.8168 2.39809 18.8168 5.2758H12.5219L17.7377 0.0599522H11.3828C8.50505 0.0599522 6.16691 2.39809 6.16691 5.2758H6.10696C3.22925 5.2758 0.891113 7.61393 0.891113 10.4916H6.16691V14.3885C6.16691 19.6044 10.4235 23.801 15.5794 23.801H25.1718V5.21585L30.3876 0L24.0327 0.0599522ZM18.577 13.849C17.7976 13.0696 17.7976 11.8106 18.577 11.0312L21.3948 13.849C20.6154 14.6283 19.3564 14.6283 18.577 13.849Z" fill="white"/>
</svg>
