<svg width="52" height="78" viewBox="0 0 52 78" fill="none" xmlns="http://www.w3.org/2000/svg">
<path d="M26.918 14.7423C23.5461 14.7423 20.7362 15.6002 18.4882 17.3161C16.3105 19.032 14.9758 21.3913 14.4841 24.3941L0.891113 23.2144C1.87458 16.2794 4.75475 10.8101 9.53161 6.80635C14.3787 2.80264 20.42 0.800781 27.6556 0.800781C34.8911 0.800781 40.7217 2.73114 45.1473 6.59187C49.6432 10.4526 51.8911 15.493 51.8911 21.713C51.8911 26.5032 50.4159 30.8286 47.4655 34.6894C44.5151 38.5501 39.7382 42.4108 33.1349 46.2715L33.0295 51.3119H21.0171L20.3849 38.5501C26.075 35.1183 30.1845 32.1155 32.7134 29.5417C35.2424 26.9679 36.5068 24.4656 36.5068 22.0348C36.5068 19.8184 35.6287 18.0668 33.8725 16.7799C32.1866 15.4215 29.8684 14.7423 26.918 14.7423ZM20.9118 75.4414C19.2961 73.7971 18.4882 71.7237 18.4882 69.2214C18.4882 66.7191 19.2961 64.6815 20.9118 63.1086C22.5275 61.4642 24.5647 60.642 27.0233 60.642C29.482 60.642 31.4841 61.4642 33.0295 63.1086C34.6452 64.6815 35.4531 66.7191 35.4531 69.2214C35.4531 71.7237 34.6452 73.7971 33.0295 75.4414C31.4841 77.0143 29.482 77.8008 27.0233 77.8008C24.5647 77.8008 22.5275 77.0143 20.9118 75.4414Z" fill="#181834" fill-opacity="0.5"/>
</svg>
